<!--?xml version="1.0" encoding="utf-8"?-->
<!-- Generator: Adobe Illustrator 15.1.0, SVG Export Plug-In . SVG Version: 6.00 Build 0)  -->

<svg version="1.1" id="_x32_" xmlns="http://www.w3.org/2000/svg" xmlns:xlink="http://www.w3.org/1999/xlink" x="0px" y="0px" width="512px" height="512px" viewBox="0 0 512 512" style="width: 256px; height: 256px; opacity: 1;" xml:space="preserve">
<style type="text/css">

	.st0{fill:#4B4B4B;}

</style>
<g>
	<path class="st0" d="M500.733,85.881c-0.75-2.375-2.781-4.125-5.234-4.516c-2.469-0.391-4.938,0.641-6.391,2.672l-6.531,9.125
		l-36.891,51.828c-7.141,9.969-21.688,11.781-32.5,4.047l-62.125-44.453c-10.813-7.734-13.813-22.094-6.672-32.063l37.781-53.063
		l6.203-8.656c1.438-2.031,1.625-4.688,0.469-6.891c-1.141-2.188-3.438-3.563-5.906-3.531c0,0-5.859-0.984-15.234,0.203
		c-23.578,3.016-46.547,12.828-65.766,29.672c-51.422,45.047-56.578,123.266-11.516,174.672
		c45.047,51.422,123.266,56.578,174.672,11.516c34.484-30.219,48.156-75.344,39.828-117.313
		C503.171,90.334,500.733,85.881,500.733,85.881z" style="fill: rgb(75, 75, 75);"></path>
	<path class="st0" d="M277.827,229.209L277.827,229.209c-2.344-2.344-4.625-4.781-6.813-7.281
		c-8.047-9.188-14.844-19.172-20.344-29.734L19.999,422.85c-20.391,20.391-20.391,53.469,0,73.859s53.469,20.391,73.859,0
		l234.406-234.422C309.843,255.006,292.624,244.006,277.827,229.209z M39.999,476.709c-9.766-9.781-9.766-25.625,0-35.391
		c9.781-9.781,25.625-9.781,35.391,0c9.781,9.766,9.781,25.609,0,35.391C65.624,486.475,49.78,486.475,39.999,476.709z" style="fill: rgb(75, 75, 75);"></path>
</g>
</svg>
